<svg width="906" height="630" viewBox="0 0 906 630" fill="none" xmlns="http://www.w3.org/2000/svg">
<path fill-rule="evenodd" clip-rule="evenodd" d="M363.307 271.58C373.49 271.58 381.745 263.724 381.745 254.033C381.745 244.343 373.49 236.487 363.307 236.487C353.124 236.487 344.87 244.343 344.87 254.033C344.87 263.724 353.124 271.58 363.307 271.58ZM363.307 263.782C368.964 263.782 373.55 259.417 373.55 254.033C373.55 248.649 368.964 244.285 363.307 244.285C357.65 244.285 353.064 248.649 353.064 254.033C353.064 259.417 357.65 263.782 363.307 263.782Z" fill="#1C86D6"/>
<path d="M240.15 246.367H231.99V269.487H226.51V246.367H218.31V241.487H240.15V246.367ZM249.705 254.367C248.879 254.073 248.132 253.927 247.465 253.927C246.532 253.927 245.745 254.18 245.105 254.687C244.492 255.167 244.079 255.793 243.865 256.567V269.487H238.665V249.487H242.705L243.305 252.127H243.465C243.919 251.14 244.532 250.38 245.305 249.847C246.079 249.313 246.985 249.047 248.025 249.047C248.719 249.047 249.505 249.193 250.385 249.487L249.705 254.367ZM252.569 250.647C253.635 250.167 254.902 249.793 256.369 249.527C257.835 249.233 259.369 249.087 260.969 249.087C262.355 249.087 263.515 249.26 264.449 249.607C265.382 249.927 266.115 250.393 266.649 251.007C267.209 251.62 267.595 252.353 267.809 253.207C268.049 254.06 268.169 255.02 268.169 256.087C268.169 257.26 268.129 258.447 268.049 259.647C267.969 260.82 267.915 261.98 267.889 263.127C267.889 264.273 267.929 265.393 268.009 266.487C268.089 267.553 268.289 268.567 268.609 269.527H264.369L263.529 266.767H263.329C262.795 267.593 262.049 268.313 261.089 268.927C260.155 269.513 258.942 269.807 257.449 269.807C256.515 269.807 255.675 269.673 254.929 269.407C254.182 269.113 253.542 268.713 253.009 268.207C252.475 267.673 252.062 267.06 251.769 266.367C251.475 265.647 251.329 264.847 251.329 263.967C251.329 262.74 251.595 261.713 252.129 260.887C252.689 260.033 253.475 259.353 254.489 258.847C255.529 258.313 256.755 257.953 258.169 257.767C259.609 257.553 261.209 257.487 262.969 257.567C263.155 256.073 263.049 255.007 262.649 254.367C262.249 253.7 261.355 253.367 259.969 253.367C258.929 253.367 257.822 253.473 256.649 253.687C255.502 253.9 254.555 254.18 253.809 254.527L252.569 250.647ZM259.169 265.527C260.209 265.527 261.035 265.3 261.649 264.847C262.262 264.367 262.715 263.86 263.009 263.327V260.727C262.182 260.647 261.382 260.633 260.609 260.687C259.862 260.74 259.195 260.86 258.609 261.047C258.022 261.233 257.555 261.5 257.209 261.847C256.862 262.193 256.689 262.633 256.689 263.167C256.689 263.913 256.902 264.5 257.329 264.927C257.782 265.327 258.395 265.527 259.169 265.527ZM279.452 259.967L280.132 263.047H280.332L280.892 259.887L284.292 249.487H289.892L281.532 269.687H278.372L269.692 249.487H275.732L279.452 259.967ZM307.322 267.767C306.522 268.407 305.428 268.953 304.042 269.407C302.682 269.833 301.228 270.047 299.682 270.047C296.455 270.047 294.095 269.113 292.602 267.247C291.108 265.353 290.362 262.767 290.362 259.487C290.362 255.967 291.202 253.327 292.882 251.567C294.562 249.807 296.922 248.927 299.962 248.927C300.975 248.927 301.962 249.06 302.922 249.327C303.882 249.593 304.735 250.033 305.482 250.647C306.228 251.26 306.828 252.087 307.282 253.127C307.735 254.167 307.962 255.46 307.962 257.007C307.962 257.567 307.922 258.167 307.842 258.807C307.788 259.447 307.695 260.113 307.562 260.807H295.562C295.642 262.487 296.068 263.753 296.842 264.607C297.642 265.46 298.922 265.887 300.682 265.887C301.775 265.887 302.748 265.727 303.602 265.407C304.482 265.06 305.148 264.713 305.602 264.367L307.322 267.767ZM299.882 253.087C298.522 253.087 297.508 253.5 296.842 254.327C296.202 255.127 295.815 256.207 295.682 257.567H303.122C303.228 256.127 303.002 255.02 302.442 254.247C301.908 253.473 301.055 253.087 299.882 253.087ZM316.994 262.767C316.994 263.7 317.114 264.38 317.354 264.807C317.594 265.233 317.981 265.447 318.514 265.447C318.834 265.447 319.141 265.42 319.434 265.367C319.754 265.313 320.141 265.193 320.594 265.007L321.154 269.087C320.727 269.3 320.074 269.513 319.194 269.727C318.314 269.94 317.407 270.047 316.474 270.047C314.954 270.047 313.794 269.7 312.994 269.007C312.194 268.287 311.794 267.113 311.794 265.487V241.487H316.994V262.767ZM333.392 254.887H343.832V267.367C342.712 268.3 341.365 268.98 339.792 269.407C338.245 269.833 336.712 270.047 335.192 270.047C333.405 270.047 331.738 269.767 330.192 269.207C328.672 268.647 327.352 267.78 326.232 266.607C325.112 265.407 324.232 263.887 323.592 262.047C322.952 260.207 322.632 258.02 322.632 255.487C322.632 252.847 323.005 250.607 323.752 248.767C324.525 246.9 325.525 245.393 326.752 244.247C328.005 243.073 329.405 242.233 330.952 241.727C332.498 241.193 334.072 240.927 335.672 240.927C337.272 240.927 338.672 241.047 339.872 241.287C341.098 241.527 342.072 241.78 342.792 242.047L341.672 246.647C341.005 246.38 340.258 246.18 339.432 246.047C338.605 245.887 337.552 245.807 336.272 245.807C335.125 245.807 334.072 245.98 333.112 246.327C332.152 246.673 331.312 247.247 330.592 248.047C329.898 248.82 329.352 249.82 328.952 251.047C328.578 252.273 328.392 253.767 328.392 255.527C328.392 257.207 328.578 258.66 328.952 259.887C329.325 261.087 329.845 262.087 330.512 262.887C331.178 263.66 331.952 264.233 332.832 264.607C333.738 264.98 334.698 265.167 335.712 265.167C336.405 265.167 337.085 265.087 337.752 264.927C338.418 264.74 338.978 264.473 339.432 264.127V258.847L333.392 258.207V254.887Z" fill="black"/>
<path d="M826.772 67.0394H646.272C637.082 67.0394 629.632 74.4894 629.632 83.6794V341.789C629.632 350.979 637.082 358.429 646.272 358.429H826.772C835.962 358.429 843.412 350.979 843.412 341.789V83.6794C843.412 74.4894 835.962 67.0394 826.772 67.0394Z" stroke="#CCDDE2" stroke-width="4.83" stroke-miterlimit="10"/>
<path d="M818.984 97.0594H656.254C651.659 97.0594 647.934 100.784 647.934 105.379V139.989C647.934 144.584 651.659 148.309 656.254 148.309H818.984C823.579 148.309 827.304 144.584 827.304 139.989V105.379C827.304 100.784 823.579 97.0594 818.984 97.0594Z" stroke="#CCDDE2" stroke-width="4.83" stroke-miterlimit="10"/>
<path d="M736.523 118.649C739.45 118.649 741.823 116.276 741.823 113.349C741.823 110.422 739.45 108.049 736.523 108.049C733.596 108.049 731.223 110.422 731.223 113.349C731.223 116.276 733.596 118.649 736.523 118.649Z" fill="#D7E8F0"/>
<path d="M721.714 137.329C721.714 133.401 723.275 129.634 726.052 126.857C728.83 124.079 732.597 122.519 736.524 122.519C740.452 122.519 744.219 124.079 746.997 126.857C749.774 129.634 751.334 133.401 751.334 137.329H721.714Z" fill="#D7E8F0"/>
<path d="M737.602 203.24C731.956 203.242 726.437 204.917 721.743 208.055C717.05 211.193 713.392 215.653 711.232 220.87C709.073 226.087 708.51 231.827 709.613 237.365C710.716 242.902 713.435 247.988 717.428 251.98C721.421 255.972 726.509 258.691 732.047 259.792C737.585 260.893 743.325 260.326 748.541 258.164C753.757 256.003 758.216 252.344 761.352 247.649C764.489 242.954 766.162 237.435 766.162 231.789C766.162 228.039 765.424 224.326 763.989 220.862C762.554 217.397 760.45 214.248 757.798 211.597C755.145 208.946 751.997 206.843 748.532 205.409C745.067 203.975 741.352 203.238 737.602 203.24ZM737.602 253.449C736.53 253.396 735.52 252.933 734.779 252.156C734.039 251.379 733.628 250.347 733.628 249.274C733.628 248.2 734.039 247.168 734.779 246.391C735.52 245.614 736.53 245.151 737.602 245.099C738.674 245.151 739.685 245.614 740.425 246.391C741.165 247.168 741.579 248.2 741.579 249.274C741.579 250.347 741.165 251.379 740.425 252.156C739.685 252.933 738.674 253.396 737.602 253.449ZM742.873 221.339C741.993 227.529 741.253 234.03 739.403 240.05C738.963 241.5 736.243 241.5 735.803 240.05C734.5 235.524 733.498 230.916 732.803 226.259C732.233 222.869 730.253 217.379 732.143 214.089C733.813 211.089 738.513 210.789 741.243 212.329C744.593 214.219 743.273 218.259 742.873 221.339Z" fill="#D7E8F0"/>
<path d="M665.875 171.189H805.346" stroke="#CCDDE2" stroke-width="4.83" stroke-miterlimit="10"/>
<path d="M665.875 184.919H805.346" stroke="#CCDDE2" stroke-width="4.83" stroke-miterlimit="10"/>
<path d="M665.875 273.319H805.346" stroke="#CCDDE2" stroke-width="4.83" stroke-miterlimit="10"/>
<path d="M698.266 286.309H772.946" stroke="#CCDDE2" stroke-width="4.83" stroke-miterlimit="10"/>
<path d="M843.425 255.299C855.725 270.759 867.425 289.919 878.005 313.529C942.425 457.389 861.905 530.399 861.905 530.399" stroke="#9F9F9F" stroke-width="4.83" stroke-miterlimit="10"/>
<path d="M170.575 369.369C170.575 369.369 74.9855 260.939 194.185 207.249C313.385 153.559 336.985 146.099 328.385 90.2494C319.785 34.3994 387.385 -22.4705 493.695 15.1095C600.005 52.6895 602.135 123.509 594.595 178.259C590.315 209.469 608.025 216.969 629.595 215.399" stroke="#9F9F9F" stroke-width="4.83" stroke-miterlimit="10"/>
<path d="M836.684 577.189C836.442 583.175 834.892 589.035 832.144 594.359C832.036 594.624 831.909 594.881 831.764 595.129C826.944 603.788 820.201 611.226 812.054 616.869L811.764 617.069C804.41 621.988 796.138 625.373 787.444 627.019C787.444 627.099 787.444 627.019 787.444 627.019H879.984C879.984 627.019 867.604 450.469 753.824 364.569C643.714 281.449 540.624 321.509 534.084 324.189C536.11 329.909 537.016 335.966 536.754 342.029C536.754 342.029 545.034 346.339 546.414 361.769C547.794 377.199 550.674 420.099 522.984 428.179C522.984 428.179 498.124 427.569 491.554 418.029C484.984 408.489 483.404 410.429 480.824 412.849C478.824 414.679 466.754 421.219 461.184 424.219C461.888 424.253 462.587 424.35 463.274 424.509C463.274 424.509 466.464 451.429 505.494 493.619C506.817 495.012 508.065 496.474 509.234 497.999C515.128 503.152 521.751 508.412 529.104 513.779L573.644 546.369C574.649 547.224 575.841 547.83 577.124 548.139C579.616 548.767 582.221 548.791 584.724 548.209C589.904 547.209 625.274 543.599 648.164 541.319C648.684 541.319 649.234 541.219 649.744 541.159L652.744 540.869C653.224 540.869 653.744 540.769 654.164 540.739L656.864 540.479C658.184 540.349 659.374 540.219 660.474 540.129L663.474 539.839C666.124 539.579 667.694 539.419 667.824 539.419C673.277 539.264 678.713 538.736 684.094 537.839C689.244 536.839 693.944 535.229 695.164 532.559C695.395 531.996 695.481 531.384 695.414 530.779C695.138 529.08 694.429 527.482 693.354 526.139C688.654 519.829 677.734 514.419 676.934 514.029C676.912 514.021 676.887 514.021 676.864 514.029L676.644 513.869L611.644 463.369H611.574C611.574 463.369 621.364 358.929 710.574 384.629C710.574 384.629 710.994 384.919 711.764 385.559C715.244 388.239 726.194 397.119 742.294 413.709C742.714 414.159 743.164 414.609 743.614 415.089C745.324 416.829 747.004 418.639 748.674 420.409C759.974 432.489 773.344 447.879 788.094 467.069L788.194 467.169C805.094 489.169 817.274 509.329 825.194 527.169V527.229C833.764 546.619 837.374 563.229 836.664 576.479C836.687 576.715 836.693 576.952 836.684 577.189ZM567.614 397.679C564.974 367.249 579.784 356.229 580.614 355.619C559.554 393.719 598.614 452.119 599.984 454.379C598.864 453.439 570.254 428.099 567.614 397.679Z" fill="#353642"/>
<path d="M511.673 391.709C510.577 392.515 509.435 393.256 508.253 393.929L501.393 381.929C517.213 373.839 521.653 359.579 514.693 351.749C512.747 349.607 510.238 348.055 507.453 347.269C500.453 345.149 495.603 348.269 492.313 352.459C489.628 356.101 487.659 360.221 486.513 364.599L483.173 326.079L482.913 323.079C482.913 323.079 475.633 319.469 455.913 322.689C436.193 325.909 432.563 336.799 424.093 331.969C415.623 327.139 410.823 327.529 410.823 327.529C408.413 336.379 401.963 336.379 401.963 336.379C400.435 336.195 398.934 335.829 397.493 335.289C388.343 326.879 385.863 312.289 385.863 312.289C395.463 311.099 396.203 301.859 395.103 294.289C400.423 297.449 407.923 297.669 418.453 290.909C448.663 271.589 479.643 282.049 490.533 283.659C495.393 284.369 500.713 282.659 505.123 280.659C505.693 281.68 506.486 282.558 507.443 283.229C514.794 288.35 520.857 295.107 525.153 302.969C553.503 355.959 522.423 384.099 511.673 391.709Z" fill="#1C86D6"/>
<path d="M398.503 627.039H409.903C414.778 627.034 419.453 625.094 422.901 621.647C426.348 618.199 428.287 613.525 428.293 608.649V595.889C428.293 594.726 428.064 593.574 427.618 592.5C427.173 591.425 426.52 590.449 425.697 589.627C424.874 588.805 423.897 588.154 422.823 587.71C421.748 587.265 420.596 587.038 419.433 587.039H351.253C351.255 589.755 350.722 592.445 349.684 594.954C348.645 597.464 347.122 599.744 345.201 601.664C343.28 603.584 340.999 605.106 338.489 606.144C335.979 607.181 333.289 607.713 330.573 607.709H84.2034C84.2054 612.835 86.2434 617.75 89.8674 621.374C93.4924 624.999 98.4074 627.036 103.533 627.039H437.533C437.969 627.04 438.401 626.955 438.805 626.789C439.208 626.622 439.575 626.378 439.883 626.069C440.192 625.761 440.436 625.394 440.603 624.991C440.769 624.588 440.854 624.155 440.853 623.719V603.009C440.853 598.985 442.451 595.127 445.296 592.282C448.141 589.437 451.999 587.839 456.023 587.839C460.046 587.839 463.905 589.437 466.75 592.282C469.594 595.127 471.193 598.985 471.193 603.009V623.719C471.191 624.154 471.276 624.586 471.442 624.989C471.608 625.391 471.851 625.757 472.159 626.066C472.466 626.374 472.831 626.619 473.234 626.786C473.636 626.953 474.067 627.039 474.503 627.039H879.983C879.983 627.039 867.603 450.449 753.823 364.559C643.713 281.439 540.623 321.499 534.083 324.179L533.763 324.299" stroke="black" stroke-width="4.83" stroke-miterlimit="10"/>
<path d="M420.076 367.399C420.072 368.509 419.739 369.594 419.119 370.515C418.5 371.436 417.621 372.154 416.595 372.576C415.568 372.999 414.439 373.108 413.351 372.889C412.262 372.671 411.262 372.135 410.478 371.35C409.694 370.564 409.16 369.563 408.943 368.474C408.727 367.385 408.838 366.257 409.262 365.231C409.687 364.205 410.406 363.328 411.328 362.71C412.25 362.092 413.335 361.761 414.446 361.759C414.88 361.761 415.313 361.815 415.736 361.919C415.153 362.103 414.645 362.468 414.285 362.961C413.926 363.454 413.733 364.049 413.736 364.659C413.733 365.042 413.806 365.422 413.95 365.777C414.095 366.131 414.308 366.454 414.577 366.726C414.847 366.998 415.167 367.215 415.52 367.363C415.874 367.511 416.253 367.588 416.636 367.589C417.336 367.575 418.009 367.317 418.539 366.858C419.069 366.4 419.421 365.77 419.536 365.079C419.88 365.805 420.064 366.596 420.076 367.399Z" fill="black"/>
<path d="M459.085 368.969C459.087 370.085 458.758 371.177 458.14 372.106C457.521 373.034 456.641 373.759 455.611 374.187C454.58 374.616 453.446 374.729 452.351 374.512C451.256 374.296 450.251 373.759 449.461 372.971C448.671 372.183 448.133 371.178 447.914 370.083C447.696 368.989 447.807 367.854 448.234 366.823C448.66 365.792 449.383 364.911 450.311 364.291C451.239 363.67 452.329 363.339 453.445 363.339C453.715 363.337 453.983 363.368 454.245 363.429C453.746 363.659 453.324 364.027 453.028 364.49C452.732 364.952 452.575 365.49 452.575 366.039C452.541 366.808 452.813 367.56 453.333 368.128C453.852 368.696 454.576 369.035 455.345 369.069C456.114 369.104 456.866 368.831 457.434 368.312C458.002 367.792 458.341 367.068 458.375 366.299C458.837 367.114 459.081 368.033 459.085 368.969Z" fill="black"/>
<path d="M504.076 272.74C503.426 277.12 504.236 280.96 507.456 283.24C514.807 288.361 520.869 295.117 525.166 302.979C558.986 366.169 508.255 393.979 508.255 393.979L501.396 381.979C521.146 371.899 523.166 352.159 507.456 347.319C491.746 342.479 486.516 364.649 486.516 364.649L482.916 323.099C482.916 323.099 475.635 319.489 455.915 322.709C436.195 325.929 432.565 336.82 424.095 331.99C415.625 327.16 410.826 327.549 410.826 327.549C408.416 336.399 401.965 336.399 401.965 336.399C383.065 333.989 378.625 307.839 378.625 307.839C388.215 306.639 388.956 297.399 387.866 289.839C393.176 292.999 400.685 293.229 411.215 286.459C441.425 267.139 472.406 277.609 483.286 279.219C490.806 280.309 499.436 275.71 504.076 272.74Z" stroke="black" stroke-width="4.83" stroke-linecap="round" stroke-linejoin="round"/>
<path d="M521.516 586.099L528.986 583.099L534.586 598.209L533.706 625.629L526.136 626.999L497.406 625.759C497.406 625.759 499.406 609.039 505.516 601.089C511.626 593.139 521.516 586.099 521.516 586.099Z" fill="#1C86D6"/>
<path d="M390.703 345.639C390.703 345.639 398.353 331.909 414.453 333.339" stroke="black" stroke-width="4.83" stroke-miterlimit="10"/>
<path d="M445.984 333.339C445.984 333.339 464.384 329.209 470.824 339.439" stroke="black" stroke-width="4.83" stroke-miterlimit="10"/>
<path d="M474.495 395.499C474.495 395.499 463.495 389.129 455.445 399.839" stroke="black" stroke-width="4.83" stroke-miterlimit="10"/>
<path d="M404.983 335.539C404.983 335.539 397.153 427.649 455.543 425.949C465.543 425.659 475.484 419.089 484.984 408.519" stroke="black" stroke-width="4.83" stroke-miterlimit="10"/>
<path d="M508.254 416.899L484.984 408.519C484.984 408.519 490.754 426.959 519.334 428.369C547.914 429.779 557.504 364.189 536.504 337.799" stroke="black" stroke-width="4.83" stroke-linejoin="round"/>
<path d="M599.233 601.679C599.233 601.679 577.903 618.989 592.393 627.039" stroke="black" stroke-width="4.83" stroke-miterlimit="10"/>
<path d="M582.736 585.569C582.736 585.569 545.736 606.509 577.506 627.039" stroke="black" stroke-width="4.83" stroke-miterlimit="10"/>
<path d="M570.256 569.469C570.256 569.469 521.146 592.469 558.986 627.039" stroke="black" stroke-width="4.83" stroke-miterlimit="10"/>
<path d="M776.775 627.039C776.775 627.039 836.355 627.039 837.155 569.469C837.955 511.899 721.625 367.339 646.345 347.229C571.065 327.119 567.835 382.229 567.835 384.489C567.835 386.749 563.415 410.489 582.735 435.819C597.655 455.399 663.555 504.279 692.795 525.519C693.869 526.301 694.68 527.39 695.12 528.644C695.559 529.897 695.607 531.254 695.256 532.535C694.906 533.816 694.173 534.96 693.157 535.815C692.14 536.669 690.887 537.194 689.565 537.319L560.245 549.739H560.165C558.945 549.959 513.305 558.379 499.405 572.679C499.405 572.679 491.615 578.449 495.645 587.309C499.675 596.169 512.055 593.249 512.395 592.919" stroke="black" stroke-width="4.83" stroke-miterlimit="10"/>
<path opacity="0.26" d="M453.455 379.43C462.347 379.43 469.555 372.221 469.555 363.329C469.555 354.437 462.347 347.229 453.455 347.229C444.563 347.229 437.355 354.437 437.355 363.329C437.355 372.221 444.563 379.43 453.455 379.43Z" fill="white"/>
<path opacity="0.26" d="M412.596 377.839C421.487 377.839 428.696 370.631 428.696 361.739C428.696 352.847 421.487 345.639 412.596 345.639C403.704 345.639 396.496 352.847 396.496 361.739C396.496 370.631 403.704 377.839 412.596 377.839Z" fill="white"/>
<path d="M551.762 583.559C546.102 581.979 536.852 580.559 527.322 583.619C522.662 585.12 518.362 587.568 514.692 590.809C513.892 591.509 513.122 592.219 512.382 592.929C510.787 594.493 509.281 596.145 507.872 597.879C507.687 598.108 507.423 598.261 507.132 598.309C503.582 598.799 480.212 602.499 480.332 614.309C480.442 624.919 492.062 626.659 496.062 626.939C496.227 626.954 496.393 626.935 496.55 626.883C496.708 626.83 496.852 626.746 496.975 626.635C497.098 626.525 497.197 626.389 497.265 626.239C497.334 626.088 497.37 625.924 497.372 625.759C497.372 621.979 498.232 610.129 507.582 598.209" stroke="black" stroke-width="4.83" stroke-miterlimit="10"/>
<path d="M341.204 500.209C343.944 522.299 326.774 532.289 308.004 533.769" stroke="black" stroke-width="4.83" stroke-miterlimit="10"/>
<path d="M280.723 529.159C273.566 525.293 267.769 519.321 264.117 512.053C260.464 504.784 259.133 496.569 260.303 488.519C263.303 467.269 281.303 450.969 298.923 440.629C335.923 418.919 419.303 434.629 433.313 437.829C444.053 440.289 453.033 431.889 456.673 427.829C456.828 427.657 457.028 427.532 457.251 427.471C457.474 427.409 457.71 427.413 457.931 427.481C458.152 427.55 458.349 427.68 458.498 427.857C458.647 428.034 458.743 428.249 458.773 428.479C466.463 473.479 555.773 534.559 576.433 548.229" stroke="black" stroke-width="4.83" stroke-miterlimit="10"/>
<path d="M363.734 484.929L334.164 503.279C332.402 504.376 330.429 505.092 328.374 505.38C326.318 505.668 324.225 505.522 322.229 504.951C320.233 504.379 318.379 503.396 316.787 502.065C315.194 500.733 313.899 499.082 312.984 497.219C311.335 493.872 311.008 490.027 312.068 486.45C313.128 482.873 315.498 479.826 318.704 477.919L363.704 451.109" stroke="black" stroke-width="4.83" stroke-miterlimit="10"/>
<path d="M453.455 379.43C462.347 379.43 469.555 372.221 469.555 363.329C469.555 354.437 462.347 347.229 453.455 347.229C444.563 347.229 437.355 354.437 437.355 363.329C437.355 372.221 444.563 379.43 453.455 379.43Z" stroke="black" stroke-width="4.83" stroke-miterlimit="10"/>
<path d="M412.596 375.429C420.157 375.429 426.286 369.3 426.286 361.739C426.286 354.178 420.157 348.049 412.596 348.049C405.035 348.049 398.906 354.178 398.906 361.739C398.906 369.3 405.035 375.429 412.596 375.429Z" stroke="white" stroke-width="4.83" stroke-miterlimit="10"/>
<path d="M412.596 377.839C421.487 377.839 428.696 370.631 428.696 361.739C428.696 352.847 421.487 345.639 412.596 345.639C403.704 345.639 396.496 352.847 396.496 361.739C396.496 370.631 403.704 377.839 412.596 377.839Z" stroke="black" stroke-width="4.83" stroke-miterlimit="10"/>
<path d="M437.435 361.74H428.695" stroke="black" stroke-width="4.83" stroke-miterlimit="10"/>
<path d="M437.434 384.49H431.674C431.312 384.49 430.954 384.41 430.626 384.256C430.298 384.102 430.008 383.878 429.777 383.599C429.545 383.32 429.379 382.994 429.288 382.643C429.198 382.292 429.186 381.925 429.254 381.569L433.064 361.74" stroke="black" stroke-width="4.83" stroke-miterlimit="10"/>
<path d="M321.866 439.439C321.866 439.439 301.336 443.869 294.096 474.869C289.696 493.689 283.656 517.699 279.596 533.659C279.075 535.706 279.029 537.845 279.46 539.913C279.892 541.981 280.79 543.923 282.087 545.591C283.383 547.259 285.044 548.609 286.941 549.537C288.839 550.466 290.923 550.949 293.036 550.949C296.19 550.949 299.25 549.875 301.712 547.902C304.173 545.93 305.889 543.177 306.576 540.099L315.166 501.559" stroke="black" stroke-width="4.83" stroke-miterlimit="10"/>
<path d="M340.632 511.899C340.632 511.899 362.182 499.019 404.632 511.899C447.082 524.779 495.882 533.519 511.982 499.359" stroke="black" stroke-width="4.83" stroke-miterlimit="10"/>
<path d="M527.336 583.619C527.336 583.619 542.336 600.739 533.216 627.039" stroke="black" stroke-width="4.83" stroke-miterlimit="10"/>
<path d="M31.6655 370.73H268.665C276.299 370.72 283.714 373.279 289.716 377.995C295.718 382.712 299.959 389.311 301.755 396.73L339.485 552.99C340.503 557.206 340.551 561.599 339.626 565.836C338.701 570.074 336.826 574.046 334.143 577.454C331.459 580.862 328.038 583.618 324.136 585.512C320.234 587.406 315.953 588.389 311.615 588.389H75.2254C67.6064 588.396 60.2054 585.845 54.2104 581.143C48.2158 576.441 43.9739 569.861 42.1655 562.46L3.82547 406.23C2.79017 402.009 2.72787 397.608 3.64337 393.36C4.55887 389.112 6.42817 385.126 9.10997 381.707C11.7917 378.287 15.2158 375.523 19.1234 373.621C23.0309 371.719 27.3197 370.731 31.6655 370.73Z" fill="#3FBDF1"/>
<path d="M40.2958 377.449H262.655C269.819 377.458 276.771 379.87 282.401 384.3C288.03 388.729 292.011 394.92 293.705 401.88L329.125 548.469C330.082 552.424 330.128 556.545 329.261 560.521C328.393 564.497 326.635 568.223 324.118 571.42C321.602 574.618 318.392 577.202 314.731 578.979C311.071 580.756 307.055 581.68 302.985 581.68H81.1654C74.0244 581.665 67.0944 579.26 61.4764 574.852C55.8584 570.443 51.8774 564.282 50.1658 557.349L14.1658 410.75C13.1937 406.789 13.1351 402.659 13.9945 398.672C14.8538 394.686 16.6086 390.948 19.126 387.74C21.6434 384.532 24.8575 381.937 28.5251 380.154C32.1928 378.372 36.2179 377.446 40.2958 377.449Z" fill="#1C86D6"/>
<path d="M31.6655 370.73H268.665C276.299 370.72 283.714 373.279 289.716 377.995C295.718 382.712 299.959 389.311 301.755 396.73L339.485 552.99C340.503 557.206 340.551 561.599 339.626 565.836C338.701 570.074 336.826 574.046 334.143 577.454C331.459 580.862 328.038 583.618 324.136 585.512C320.234 587.406 315.953 588.389 311.615 588.389H75.2254C67.6064 588.396 60.2054 585.845 54.2104 581.143C48.2158 576.441 43.9739 569.861 42.1655 562.46L3.82547 406.23C2.79017 402.009 2.72787 397.608 3.64337 393.36C4.55887 389.112 6.42817 385.126 9.10997 381.707C11.7917 378.287 15.2158 375.523 19.1234 373.621C23.0309 371.719 27.3197 370.731 31.6655 370.73Z" stroke="black" stroke-width="4.83" stroke-miterlimit="10"/>
<path d="M142.663 474.809L128.533 408.939C128.24 407.546 127.477 406.296 126.372 405.399C125.267 404.501 123.887 404.011 122.463 404.009H52.5436C51.6031 404.012 50.6754 404.228 49.8308 404.642C48.9863 405.056 48.2469 405.656 47.6688 406.398C47.0907 407.14 46.689 408.004 46.494 408.924C46.2991 409.844 46.316 410.797 46.5436 411.709L62.8934 478.349C63.0964 479.278 63.5294 480.141 64.1534 480.859C64.7134 481.571 65.4274 482.146 66.2414 482.543C67.0554 482.94 67.9484 483.147 68.8534 483.149H68.9834L136.653 482.349C137.567 482.336 138.466 482.121 139.287 481.72C140.108 481.319 140.831 480.742 141.403 480.029C141.986 479.306 142.401 478.463 142.619 477.561C142.837 476.658 142.852 475.718 142.663 474.809ZM51.2136 410.529C51.1629 410.332 51.1581 410.126 51.1997 409.926C51.2414 409.727 51.3282 409.54 51.4536 409.379C51.5819 409.212 51.7469 409.076 51.9359 408.983C52.1248 408.889 52.3327 408.84 52.5436 408.839H122.463C122.778 408.838 123.084 408.945 123.328 409.144C123.573 409.343 123.741 409.62 123.803 409.929L134.563 460.099C98.6334 425.409 94.5634 465.209 94.5634 465.209C74.2834 454.649 68.4234 466.209 66.7234 473.819L51.2136 410.529Z" fill="#D7E8F0"/>
<path d="M71.4035 434.439C75.3035 433.229 77.1535 428.059 75.5535 422.889C73.9535 417.719 69.4835 414.519 65.5535 415.729C61.6235 416.939 59.8035 422.109 61.4135 427.269C63.0235 432.429 67.5135 435.649 71.4035 434.439Z" fill="#D7E8F0"/>
<path d="M88.5243 433.259H111.464C114.314 433.259 117.174 433.259 120.024 433.259H120.434C121.237 433.281 122.035 433.131 122.774 432.819C123.286 432.566 123.72 432.182 124.034 431.706C124.347 431.229 124.529 430.677 124.559 430.107C124.59 429.537 124.468 428.97 124.207 428.462C123.946 427.955 123.555 427.526 123.074 427.219C122.536 426.974 122.045 426.636 121.624 426.219C121.346 425.78 121.156 425.291 121.064 424.779C120.535 423.332 119.511 422.117 118.174 421.349C117.202 420.695 116.107 420.244 114.956 420.022C113.805 419.8 112.621 419.814 111.474 420.06C110.344 420.346 109.308 420.925 108.474 421.74C107.764 422.44 107.624 423.379 107.074 424.159C106.714 424.669 106.484 424.509 105.994 424.229C105.504 423.949 105.234 423.739 104.834 423.539C104.045 423.117 103.226 422.753 102.384 422.449C100.669 421.814 98.8403 421.545 97.0143 421.659C93.8043 421.909 90.6043 423.819 89.4843 426.839C88.4753 426.853 87.5043 427.226 86.7453 427.891C85.9863 428.556 85.4903 429.471 85.3443 430.469C85.2783 430.854 85.3033 431.25 85.4183 431.623C85.5333 431.997 85.7333 432.339 86.0043 432.62C86.7343 433.144 87.6343 433.371 88.5243 433.259Z" fill="#D7E8F0"/>
<path d="M252.984 431.839L251.144 424.269C249.91 419.18 247 414.654 242.883 411.418C238.766 408.182 233.68 406.425 228.444 406.429H203.174C200.291 406.426 197.446 407.088 194.86 408.364C192.275 409.64 190.019 411.495 188.267 413.786C186.516 416.076 185.317 418.739 184.763 421.569C184.209 424.398 184.315 427.317 185.074 430.099L187.164 437.789C188.499 442.737 191.428 447.106 195.497 450.221C199.566 453.336 204.549 455.022 209.674 455.019H234.794C237.631 455.017 240.431 454.37 242.982 453.128C245.533 451.885 247.768 450.08 249.52 447.848C251.272 445.616 252.494 443.015 253.094 440.242C253.694 437.469 253.656 434.596 252.984 431.839ZM225.194 433.709L216.564 439.019C216.231 439.23 215.854 439.362 215.463 439.403C215.071 439.444 214.675 439.394 214.306 439.256C213.937 439.119 213.604 438.897 213.335 438.61C213.066 438.322 212.867 437.976 212.754 437.599L209.504 426.979C209.367 426.508 209.368 426.007 209.504 425.536C209.641 425.065 209.909 424.642 210.277 424.318C210.645 423.993 211.097 423.779 211.582 423.701C212.066 423.624 212.563 423.685 213.014 423.879L224.984 429.169C225.412 429.362 225.779 429.668 226.044 430.055C226.31 430.442 226.464 430.894 226.49 431.363C226.516 431.832 226.412 432.298 226.191 432.712C225.969 433.126 225.638 433.471 225.234 433.709H225.194Z" fill="white"/>
<path d="M247.345 499.839H203.135C201.111 499.836 199.132 499.244 197.438 498.136C195.744 497.028 194.409 495.452 193.595 493.599C193.343 493.029 193.207 492.413 193.195 491.789C193.205 490.583 193.691 489.431 194.547 488.581C195.403 487.731 196.559 487.253 197.765 487.25H244.765C242.555 490.99 243.675 496.159 247.345 499.839Z" fill="#D7E8F0"/>
<path d="M275.983 495.299C275.98 496.503 275.501 497.657 274.65 498.508C273.799 499.359 272.646 499.837 271.443 499.839H247.343C243.673 496.159 242.553 490.99 244.763 487.25H265.983C268.003 487.251 269.98 487.837 271.674 488.94C273.367 490.042 274.704 491.612 275.523 493.459C275.8 494.035 275.956 494.661 275.983 495.299Z" fill="#3FBDF1"/>
<path d="M264.873 499.839C264.748 500.08 264.604 500.311 264.443 500.529C261.283 504.839 254.443 505.239 249.133 501.359C248.498 500.899 247.9 500.391 247.343 499.839C243.673 496.159 242.553 490.989 244.763 487.249C244.887 487.011 245.03 486.784 245.193 486.569C248.323 482.229 255.193 481.849 260.473 485.699C261.113 486.171 261.718 486.689 262.283 487.249C265.983 490.929 267.053 496.099 264.873 499.839Z" fill="white"/>
<path d="M287.053 523.099C287.042 524.305 286.556 525.458 285.701 526.308C284.845 527.158 283.689 527.636 282.483 527.639H107.263C109.503 523.879 108.383 518.729 104.703 515.059H277.113C279.135 515.058 281.113 515.647 282.806 516.754C284.499 517.86 285.832 519.436 286.643 521.289C286.902 521.858 287.041 522.474 287.053 523.099Z" fill="#3FBDF1"/>
<path d="M107.266 527.589H85.4364C83.4154 527.59 81.4374 527.003 79.7444 525.9C78.0504 524.798 76.7134 523.227 75.8964 521.379C75.6394 520.8 75.5024 520.173 75.4964 519.539C75.4944 518.943 75.6114 518.353 75.8394 517.802C76.0674 517.251 76.4014 516.751 76.8234 516.33C77.2454 515.908 77.7464 515.575 78.2984 515.348C78.8494 515.122 79.4404 515.007 80.0364 515.009H104.706C108.386 518.679 109.506 523.829 107.266 527.589Z" fill="#D7E8F0"/>
<path d="M107.263 527.589C107.161 527.835 107.026 528.067 106.863 528.279C103.733 532.619 96.8633 532.989 91.5733 529.139C90.9363 528.667 90.3353 528.149 89.7733 527.589C86.1233 523.909 85.0033 518.769 87.1833 515.009C87.3053 514.766 87.4493 514.535 87.6133 514.319C90.7733 510.009 97.6133 509.609 102.923 513.479C103.557 513.94 104.152 514.452 104.703 515.009C108.383 518.679 109.503 523.829 107.263 527.589Z" fill="white"/>
<path d="M122.724 555.099H94.9844C92.9644 555.097 90.9874 554.51 89.2944 553.407C87.6014 552.305 86.2644 550.736 85.4444 548.889C85.1694 548.331 85.0124 547.721 84.9844 547.099C84.9874 545.891 85.4684 544.733 86.3234 543.878C87.1774 543.023 88.3354 542.542 89.5444 542.539H120.114C117.984 546.319 119.074 551.459 122.724 555.099Z" fill="#3FBDF1"/>
<path d="M296.564 550.629C296.548 551.829 296.057 552.973 295.198 553.811C294.339 554.649 293.182 555.112 291.983 555.099H122.724C119.074 551.419 117.954 546.279 120.134 542.519H286.624C288.646 542.518 290.623 543.107 292.316 544.214C294.009 545.32 295.343 546.896 296.154 548.749C296.418 549.341 296.558 549.981 296.564 550.629Z" fill="#D7E8F0"/>
<path d="M140.244 555.099C140.122 555.341 139.977 555.573 139.813 555.789C136.683 560.129 129.813 560.498 124.533 556.648C123.892 556.177 123.288 555.659 122.724 555.099C119.074 551.419 117.954 546.278 120.134 542.518C120.259 542.278 120.402 542.047 120.563 541.828C123.723 537.518 130.564 537.139 135.874 540.989C136.509 541.447 137.105 541.959 137.654 542.518C141.334 546.228 142.454 551.399 140.244 555.099Z" fill="white"/>
<g opacity="0.21">
<path opacity="0.21" d="M145.082 477.219L130.982 411.349C130.69 409.956 129.927 408.706 128.822 407.81C127.716 406.914 126.335 406.426 124.912 406.429H54.9823C54.0353 406.429 53.1013 406.646 52.2519 407.064C51.4023 407.481 50.6601 408.089 50.0825 408.839C49.5097 409.574 49.1127 410.43 48.9221 411.341C48.7314 412.253 48.7521 413.197 48.9825 414.099L65.3323 480.749C65.5323 481.677 65.9623 482.54 66.5823 483.259C67.1443 483.97 67.8603 484.545 68.6763 484.94C69.4913 485.334 70.3863 485.539 71.2923 485.539H71.4523L139.112 484.729C140.024 484.718 140.922 484.505 141.741 484.106C142.561 483.706 143.282 483.13 143.852 482.419C144.427 481.696 144.835 480.855 145.048 479.956C145.26 479.058 145.272 478.123 145.082 477.219ZM53.6223 412.949C53.5713 412.751 53.5673 412.544 53.6113 412.344C53.6543 412.145 53.7443 411.958 53.8723 411.799C53.9973 411.631 54.1603 411.494 54.3483 411.401C54.5353 411.307 54.7423 411.258 54.9523 411.259H124.872C125.187 411.257 125.493 411.363 125.739 411.559C125.985 411.756 126.156 412.031 126.222 412.339L136.982 462.509C101.042 427.809 96.9823 467.619 96.9823 467.619C76.7123 457.059 70.8423 468.619 69.1523 476.229L53.6223 412.949Z" fill="#D7E8F0"/>
<path opacity="0.21" d="M73.8212 436.849C77.7112 435.639 79.5712 430.469 77.9612 425.309C76.3512 420.149 71.9012 416.929 67.9612 418.139C64.0212 419.349 62.2112 424.519 63.8112 429.689C65.4112 434.859 69.9812 438.099 73.8212 436.849Z" fill="#D7E8F0"/>
<path opacity="0.21" d="M90.9814 435.679H113.911C116.771 435.679 119.621 435.679 122.481 435.679H122.881C123.683 435.702 124.481 435.552 125.221 435.239C125.735 434.988 126.172 434.604 126.487 434.128C126.803 433.651 126.985 433.098 127.016 432.527C127.047 431.957 126.924 431.388 126.661 430.88C126.398 430.372 126.005 429.944 125.521 429.639C124.987 429.386 124.498 429.048 124.071 428.639C123.801 428.192 123.612 427.702 123.511 427.189C122.981 425.747 121.962 424.537 120.631 423.769C119.657 423.113 118.561 422.66 117.408 422.438C116.255 422.216 115.069 422.23 113.921 422.479C112.809 422.767 111.794 423.347 110.981 424.159C110.261 424.859 110.131 425.789 109.581 426.579C109.221 427.089 108.991 426.929 108.501 426.639C108.011 426.349 107.741 426.159 107.341 425.949C106.552 425.53 105.733 425.169 104.891 424.869C103.176 424.232 101.347 423.959 99.5215 424.069C96.3115 424.319 93.1114 426.239 91.9814 429.249C90.9724 429.265 90.0025 429.641 89.2455 430.308C88.4885 430.975 87.9945 431.89 87.8515 432.889C87.7865 433.274 87.8125 433.668 87.9245 434.04C88.0375 434.413 88.2345 434.755 88.5015 435.039C89.2235 435.545 90.1044 435.773 90.9814 435.679Z" fill="#D7E8F0"/>
<path opacity="0.21" d="M255.444 434.249L253.604 426.689C252.368 421.598 249.457 417.071 245.338 413.833C241.22 410.596 236.132 408.837 230.894 408.839H205.584C202.704 408.837 199.862 409.499 197.28 410.774C194.697 412.048 192.443 413.9 190.692 416.187C188.941 418.473 187.741 421.133 187.185 423.958C186.628 426.784 186.731 429.7 187.484 432.479L189.574 440.179C190.911 445.128 193.841 449.498 197.912 452.612C201.983 455.727 206.968 457.413 212.094 457.409H237.214C240.052 457.41 242.853 456.767 245.406 455.528C247.959 454.289 250.198 452.486 251.953 450.256C253.708 448.026 254.934 445.427 255.539 442.654C256.144 439.881 256.111 437.008 255.444 434.249ZM227.644 436.099L218.984 441.439C218.652 441.651 218.276 441.782 217.885 441.823C217.493 441.864 217.098 441.814 216.73 441.676C216.361 441.539 216.03 441.317 215.762 441.03C215.493 440.742 215.295 440.396 215.184 440.019L211.984 429.389C211.85 428.919 211.852 428.42 211.99 427.95C212.128 427.481 212.396 427.06 212.763 426.736C213.131 426.413 213.582 426.2 214.065 426.123C214.548 426.046 215.044 426.107 215.494 426.299L227.374 431.579C227.795 431.774 228.156 432.08 228.418 432.464C228.679 432.847 228.832 433.295 228.86 433.759C228.888 434.222 228.789 434.685 228.575 435.097C228.361 435.509 228.039 435.855 227.644 436.099Z" fill="#D7E8F0"/>
<path opacity="0.21" d="M249.761 502.25H205.551C203.529 502.246 201.551 501.654 199.857 500.548C198.164 499.443 196.828 497.869 196.011 496.019C195.699 495.328 195.567 494.571 195.627 493.816C195.686 493.061 195.936 492.332 196.351 491.698C196.767 491.065 197.336 490.548 198.006 490.193C198.675 489.838 199.423 489.658 200.181 489.67H247.181C244.981 493.4 246.081 498.58 249.761 502.25Z" fill="#D7E8F0"/>
<path opacity="0.21" d="M278.342 497.709C278.342 498.912 277.866 500.065 277.016 500.916C276.167 501.767 275.015 502.247 273.812 502.249H249.763C246.083 498.579 244.963 493.399 247.173 489.669H268.403C270.424 489.668 272.402 490.254 274.095 491.357C275.789 492.459 277.126 494.031 277.942 495.879C278.199 496.456 278.335 497.078 278.342 497.709Z" fill="#3FBDF1"/>
<path opacity="0.21" d="M267.282 502.25C267.165 502.495 267.021 502.726 266.852 502.94C263.692 507.25 256.853 507.649 251.543 503.779C250.911 503.315 250.316 502.805 249.763 502.25C246.083 498.58 244.963 493.399 247.173 489.669C247.298 489.426 247.445 489.195 247.613 488.979C250.743 484.639 257.613 484.269 262.893 488.119C263.533 488.59 264.138 489.108 264.703 489.669C268.353 493.349 269.472 498.49 267.282 502.25Z" fill="white"/>
<path opacity="0.21" d="M289.461 525.469C289.45 526.674 288.964 527.827 288.108 528.675C287.252 529.523 286.096 529.999 284.891 529.999H109.681C111.921 526.239 110.801 521.099 107.121 517.419H279.521C281.545 517.419 283.526 518.009 285.221 519.117C286.915 520.226 288.25 521.804 289.061 523.659C289.318 524.229 289.454 524.845 289.461 525.469Z" fill="#3FBDF1"/>
<path opacity="0.21" d="M109.682 529.999H87.8423C85.8233 529.998 83.8473 529.412 82.1543 528.311C80.4613 527.211 79.1233 525.644 78.3023 523.799C78.0503 523.218 77.9153 522.593 77.9023 521.959C77.9023 520.755 78.3803 519.6 79.2323 518.749C80.0833 517.898 81.2383 517.419 82.4423 517.419H107.122C110.802 521.099 111.922 526.239 109.682 529.999Z" fill="#D7E8F0"/>
<path opacity="0.21" d="M109.681 530C109.578 530.248 109.44 530.481 109.271 530.69C106.141 535.03 99.2714 535.41 93.9914 531.56C93.3504 531.085 92.7454 530.563 92.1814 530C88.5314 526.33 87.4114 521.18 89.6014 517.42C89.7184 517.174 89.8634 516.943 90.0314 516.73C93.1914 512.42 100.031 512.019 105.341 515.899C105.97 516.363 106.565 516.871 107.121 517.42C110.801 521.1 111.921 526.24 109.681 530Z" fill="white"/>
<path opacity="0.21" d="M125.134 557.549H97.3543C95.3353 557.545 93.3613 556.958 91.6683 555.858C89.9753 554.758 88.6373 553.192 87.8143 551.349C87.5633 550.778 87.4273 550.163 87.4143 549.539C87.4193 548.329 87.9023 547.169 88.7583 546.313C89.6143 545.458 90.7733 544.974 91.9843 544.969H122.554C120.364 548.729 121.484 553.879 125.134 557.549Z" fill="#3FBDF1"/>
<path opacity="0.21" d="M298.984 553.039C298.983 553.634 298.864 554.223 298.635 554.771C298.406 555.32 298.071 555.818 297.649 556.237C297.228 556.656 296.727 556.986 296.177 557.212C295.627 557.437 295.038 557.552 294.444 557.549H125.134C121.484 553.879 120.364 548.729 122.554 544.969H289.034C291.059 544.969 293.039 545.559 294.734 546.667C296.428 547.776 297.763 549.354 298.574 551.209C298.833 551.785 298.973 552.408 298.984 553.039Z" fill="#D7E8F0"/>
<path opacity="0.21" d="M142.664 557.549C142.539 557.792 142.392 558.023 142.224 558.239C139.094 562.579 132.224 562.959 126.944 559.109C126.303 558.634 125.698 558.113 125.134 557.549C121.484 553.879 120.364 548.729 122.554 544.969C122.672 544.724 122.816 544.493 122.984 544.279C126.144 539.969 132.984 539.599 138.294 543.449C138.923 543.912 139.518 544.42 140.074 544.969C143.754 548.649 144.874 553.819 142.664 557.549Z" fill="white"/>
</g>
<circle cx="402.37" cy="183.987" r="34.5" fill="#1C86D6"/>
<g clip-path="url(#clip0_116_169)">
<path fill-rule="evenodd" clip-rule="evenodd" d="M407.553 165.628C400.601 163.444 395.577 165.927 392.598 172.761L399.448 175.391C400.458 173.015 402.493 171.73 405.099 172.426C407.656 173.108 409.762 174.588 409.823 176.539C409.889 178.646 407.368 180.098 406.214 180.671C404.078 181.734 401.171 181.992 399.223 183.276C397.313 184.534 396.215 186.732 395.047 189.49L401.084 191.807C401.854 190.053 402.63 188.387 403.869 187.589C405.884 186.292 408.183 186.204 410.385 185.415C412.488 184.66 414.781 183.657 416.039 181.225C419.805 173.947 414.982 167.96 407.553 165.628Z" fill="#F8F8F8"/>
<path d="M394.284 200.659C396.389 201.467 398.741 200.441 399.537 198.368C400.332 196.295 399.271 193.96 397.166 193.152C395.061 192.344 392.71 193.369 391.914 195.442C391.118 197.515 392.179 199.851 394.284 200.659Z" fill="#F8F8F8"/>
</g>
<defs>
<clipPath id="clip0_116_169">
<rect width="40" height="40" fill="white" transform="translate(390.366 157.648) rotate(21)"/>
</clipPath>
</defs>
</svg>
