<svg width="47" height="16" viewBox="0 0 47 16" fill="none" xmlns="http://www.w3.org/2000/svg">
<path fill-rule="evenodd" clip-rule="evenodd" d="M42.5 12C44.9853 12 47 9.98528 47 7.5C47 5.01472 44.9853 3 42.5 3C40.0147 3 38 5.01472 38 7.5C38 9.98528 40.0147 12 42.5 12ZM42.5 10C43.8807 10 45 8.88071 45 7.5C45 6.11929 43.8807 5 42.5 5C41.1193 5 40 6.11929 40 7.5C40 8.88071 41.1193 10 42.5 10Z" fill="#1C86D6"/>
<path d="M6.684 5.064H4.236V12H2.592V5.064H0.132V3.6H6.684V5.064ZM9.55069 7.464C9.30269 7.376 9.07869 7.332 8.87869 7.332C8.59869 7.332 8.36269 7.408 8.17069 7.56C7.98669 7.704 7.86269 7.892 7.79869 8.124V12H6.23869V6H7.45069L7.63069 6.792H7.67869C7.81469 6.496 7.99869 6.268 8.23069 6.108C8.46269 5.948 8.73469 5.868 9.04669 5.868C9.25469 5.868 9.49069 5.912 9.75469 6L9.55069 7.464ZM10.4097 6.348C10.7297 6.204 11.1097 6.092 11.5497 6.012C11.9897 5.924 12.4497 5.88 12.9297 5.88C13.3457 5.88 13.6937 5.932 13.9737 6.036C14.2537 6.132 14.4737 6.272 14.6337 6.456C14.8017 6.64 14.9177 6.86 14.9817 7.116C15.0537 7.372 15.0897 7.66 15.0897 7.98C15.0897 8.332 15.0777 8.688 15.0537 9.048C15.0297 9.4 15.0137 9.748 15.0057 10.092C15.0057 10.436 15.0177 10.772 15.0417 11.1C15.0657 11.42 15.1257 11.724 15.2217 12.012H13.9497L13.6977 11.184H13.6377C13.4777 11.432 13.2537 11.648 12.9657 11.832C12.6857 12.008 12.3217 12.096 11.8737 12.096C11.5937 12.096 11.3417 12.056 11.1177 11.976C10.8937 11.888 10.7017 11.768 10.5417 11.616C10.3817 11.456 10.2577 11.272 10.1697 11.064C10.0817 10.848 10.0377 10.608 10.0377 10.344C10.0377 9.976 10.1177 9.668 10.2777 9.42C10.4457 9.164 10.6817 8.96 10.9857 8.808C11.2977 8.648 11.6657 8.54 12.0897 8.484C12.5217 8.42 13.0017 8.4 13.5297 8.424C13.5857 7.976 13.5537 7.656 13.4337 7.464C13.3137 7.264 13.0457 7.164 12.6297 7.164C12.3177 7.164 11.9857 7.196 11.6337 7.26C11.2897 7.324 11.0057 7.408 10.7817 7.512L10.4097 6.348ZM12.3897 10.812C12.7017 10.812 12.9497 10.744 13.1337 10.608C13.3177 10.464 13.4537 10.312 13.5417 10.152V9.372C13.2937 9.348 13.0537 9.344 12.8217 9.36C12.5977 9.376 12.3977 9.412 12.2217 9.468C12.0457 9.524 11.9057 9.604 11.8017 9.708C11.6977 9.812 11.6457 9.944 11.6457 10.104C11.6457 10.328 11.7097 10.504 11.8377 10.632C11.9737 10.752 12.1577 10.812 12.3897 10.812ZM18.4748 9.144L18.6788 10.068H18.7388L18.9068 9.12L19.9268 6H21.6068L19.0988 12.06H18.1508L15.5468 6H17.3588L18.4748 9.144ZM26.8356 11.484C26.5956 11.676 26.2676 11.84 25.8516 11.976C25.4436 12.104 25.0076 12.168 24.5436 12.168C23.5756 12.168 22.8676 11.888 22.4196 11.328C21.9716 10.76 21.7476 9.984 21.7476 9C21.7476 7.944 21.9996 7.152 22.5036 6.624C23.0076 6.096 23.7156 5.832 24.6276 5.832C24.9316 5.832 25.2276 5.872 25.5156 5.952C25.8036 6.032 26.0596 6.164 26.2836 6.348C26.5076 6.532 26.6876 6.78 26.8236 7.092C26.9596 7.404 27.0276 7.792 27.0276 8.256C27.0276 8.424 27.0156 8.604 26.9916 8.796C26.9756 8.988 26.9476 9.188 26.9076 9.396H23.3076C23.3316 9.9 23.4596 10.28 23.6916 10.536C23.9316 10.792 24.3156 10.92 24.8436 10.92C25.1716 10.92 25.4636 10.872 25.7196 10.776C25.9836 10.672 26.1836 10.568 26.3196 10.464L26.8356 11.484ZM24.6036 7.08C24.1956 7.08 23.8916 7.204 23.6916 7.452C23.4996 7.692 23.3836 8.016 23.3436 8.424H25.5756C25.6076 7.992 25.5396 7.66 25.3716 7.428C25.2116 7.196 24.9556 7.08 24.6036 7.08ZM29.7373 9.984C29.7373 10.264 29.7733 10.468 29.8453 10.596C29.9173 10.724 30.0333 10.788 30.1933 10.788C30.2893 10.788 30.3813 10.78 30.4693 10.764C30.5653 10.748 30.6813 10.712 30.8173 10.656L30.9853 11.88C30.8573 11.944 30.6613 12.008 30.3973 12.072C30.1333 12.136 29.8613 12.168 29.5813 12.168C29.1253 12.168 28.7773 12.064 28.5373 11.856C28.2973 11.64 28.1773 11.288 28.1773 10.8V3.6H29.7373V9.984ZM34.6567 7.62H37.7887V11.364C37.4527 11.644 37.0487 11.848 36.5767 11.976C36.1127 12.104 35.6527 12.168 35.1967 12.168C34.6607 12.168 34.1607 12.084 33.6967 11.916C33.2407 11.748 32.8447 11.488 32.5087 11.136C32.1727 10.776 31.9087 10.32 31.7167 9.768C31.5247 9.216 31.4287 8.56 31.4287 7.8C31.4287 7.008 31.5407 6.336 31.7647 5.784C31.9967 5.224 32.2967 4.772 32.6647 4.428C33.0407 4.076 33.4607 3.824 33.9247 3.672C34.3887 3.512 34.8607 3.432 35.3407 3.432C35.8207 3.432 36.2407 3.468 36.6007 3.54C36.9687 3.612 37.2607 3.688 37.4767 3.768L37.1407 5.148C36.9407 5.068 36.7167 5.008 36.4687 4.968C36.2207 4.92 35.9047 4.896 35.5207 4.896C35.1767 4.896 34.8607 4.948 34.5727 5.052C34.2847 5.156 34.0327 5.328 33.8167 5.568C33.6087 5.8 33.4447 6.1 33.3247 6.468C33.2127 6.836 33.1567 7.284 33.1567 7.812C33.1567 8.316 33.2127 8.752 33.3247 9.12C33.4367 9.48 33.5927 9.78 33.7927 10.02C33.9927 10.252 34.2247 10.424 34.4887 10.536C34.7607 10.648 35.0487 10.704 35.3527 10.704C35.5607 10.704 35.7647 10.68 35.9647 10.632C36.1647 10.576 36.3327 10.496 36.4687 10.392V8.808L34.6567 8.616V7.62Z" fill="black"/>
</svg>
